# xmcd
#
# Track frame offsets:
#	150
#	15858
#	31681
#	54917
#	78124
#	97354
#	116563
#	130958
#	149762
#	165905
#	187184
#	201886
#	219362
#	235412
#	250463
#	268859
#	287422
#	304590
#	337781
#
# Disc length: 4795 seconds
#
# Revision: 3
# Processed by: cddbd v1.5.2PL0 Copyright (c) Steve Scherf et al.
# Submitted via: audiograbber 1.83.01
#
DISCID=0912b913
DTITLE=Various Artist - Die Ultimative Chartshow CD 2
DYEAR=2003
DGENRE=Pop
TTITLE0=No Angels - Daylight In Your Eyes
TTITLE1=Britney Spears - Baby One More Time
TTITLE2=Sinéad O'Connor - Nothing Compares 2 U
TTITLE3=Scorpions - Wind Of Change
TTITLE4=Enigma - Sadeness (Part 1)
TTITLE5=Laid Back - Sunshine Reggae
TTITLE6=Rednex - Cotton-Eye Joe
TTITLE7=Run-DMC - It's Like That
TTITLE8=Spider Murphy Gang - Skandal im Sperrbezirk
TTITLE9=Village People - YMCA
TTITLE10=George McCrae - Rock Your Baby
TTITLE11=Blondie - Heart Of Glass
TTITLE12=Charles and Eddie - Would I Lie To You
TTITLE13=Matthias Reim - Verdammt, ich lieb' Dich
TTITLE14=Udo Jürgens - Griechischer Wein
TTITLE15=Roland Kaiser - Santa Maria
TTITLE16=Anton feat. DJ Ötzi - Anton aus Tirol
TTITLE17=Bobby McFerrin - Don't Worry Be Happy
TTITLE18=ko - Daten-CD
EXTD=
EXTT0=
EXTT1=
EXTT2=
EXTT3=
EXTT4=
EXTT5=
EXTT6=
EXTT7=
EXTT8=
EXTT9=
EXTT10=
EXTT11=
EXTT12=
EXTT13=
EXTT14=
EXTT15=
EXTT16=
EXTT17=
EXTT18=
PLAYORDER=
